<?xml version="1.0" standalone="no"?>
<!DOCTYPE svg PUBLIC "-//W3C//DTD SVG 20010904//EN"
 "http://www.w3.org/TR/2001/REC-SVG-20010904/DTD/svg10.dtd">
<svg version="1.0" xmlns="http://www.w3.org/2000/svg"
 width="718.000000pt" height="820.000000pt" viewBox="0 0 718.000000 820.000000"
 preserveAspectRatio="xMidYMid meet">

<g transform="translate(0.000000,820.000000) scale(0.100000,-0.100000)"
fill="#000000" stroke="none">
<path d="M3275 6000 c-265 -42 -522 -168 -756 -373 -121 -106 -193 -202 -306
-407 -16 -30 -55 -98 -86 -149 -31 -52 -64 -118 -73 -145 -10 -28 -27 -67 -40
-87 -52 -83 -71 -158 -78 -309 -3 -58 -12 -132 -20 -165 -61 -253 -99 -1156
-62 -1470 28 -235 84 -393 170 -476 43 -43 44 -43 39 -100 -10 -108 51 -251
136 -319 l41 -33 0 -91 c1 -99 15 -272 26 -299 3 -10 1 -19 -7 -21 -8 -2 -70
-21 -139 -41 -152 -43 -236 -76 -445 -170 -88 -40 -195 -87 -237 -105 -43 -17
-145 -72 -227 -121 -127 -75 -160 -100 -226 -171 -168 -182 -316 -460 -431
-810 -20 -62 -39 -119 -42 -126 -2 -7 4 -12 16 -12 16 0 27 24 67 138 62 178
109 288 193 447 88 169 124 223 218 323 114 123 273 220 589 357 110 48 220
98 245 110 46 23 412 145 435 145 7 0 26 -24 43 -52 37 -67 85 -116 192 -198
184 -143 271 -190 450 -249 145 -48 242 -61 435 -60 179 0 212 4 530 64 196
37 272 60 477 145 115 48 222 139 346 294 57 71 133 164 169 205 36 41 72 91
80 111 9 19 16 36 17 37 2 3 164 -44 201 -58 17 -7 80 -34 141 -60 61 -27 176
-73 255 -103 167 -63 273 -106 418 -170 58 -26 159 -67 225 -92 160 -61 221
-89 404 -186 114 -60 170 -97 222 -145 111 -103 146 -164 256 -448 l43 -110 1
80 c0 82 -11 117 -87 285 -50 109 -155 232 -259 302 -93 63 -369 197 -561 272
-103 41 -222 90 -263 109 -83 38 -245 103 -420 167 -63 24 -173 67 -244 97
-72 31 -172 65 -227 77 l-99 21 0 55 c0 30 -9 96 -20 145 -29 130 -50 302 -50
408 l0 93 41 54 c72 96 92 165 114 400 21 223 41 396 72 640 23 178 27 238 26
455 -3 572 -97 1061 -254 1320 -52 86 -162 210 -205 230 -52 24 -74 8 -104
-79 l-10 -28 -45 41 c-58 53 -151 113 -295 189 -180 95 -346 155 -575 209 -74
17 -358 25 -440 13z m918 -691 c11 -7 30 -20 41 -30 11 -11 25 -19 32 -19 6 0
17 -13 24 -30 9 -22 19 -30 37 -30 20 0 24 -4 20 -20 -3 -11 0 -18 7 -17 7 1
12 -19 14 -55 2 -32 7 -58 12 -58 6 0 10 -11 10 -25 0 -14 6 -25 13 -26 6 0 2
-5 -10 -11 -19 -9 -27 -5 -62 30 -23 23 -41 38 -41 34 0 -4 -7 2 -16 13 -8 11
-17 19 -20 17 -2 -1 -17 4 -32 12 -67 35 -222 60 -222 36 0 -4 -16 -10 -35
-13 -19 -3 -42 -13 -51 -21 -8 -9 -24 -16 -33 -16 -10 0 -25 -8 -32 -17 -12
-14 -12 -16 0 -8 10 5 12 4 7 -3 -4 -7 -15 -12 -25 -12 -9 0 -21 -4 -27 -9
-11 -10 -82 -27 -72 -16 3 3 2 20 -2 36 -5 16 -5 29 -1 29 5 0 8 10 7 23 0 12
4 21 10 20 7 -1 17 11 24 27 12 30 80 111 80 97 0 -4 10 2 22 13 12 11 27 19
33 16 6 -2 31 7 55 20 36 19 61 23 128 24 46 0 93 -5 105 -11z m-1289 -185
c19 -19 47 -37 63 -40 39 -8 53 -43 56 -145 3 -108 -4 -159 -20 -159 -16 0
-33 -31 -29 -56 2 -10 -6 -28 -18 -39 -15 -14 -22 -34 -23 -69 -1 -27 -6 -52
-11 -55 -8 -5 -22 -232 -22 -346 0 -30 9 -155 15 -210 8 -75 45 -271 73 -380
17 -66 33 -147 36 -180 8 -80 27 -165 38 -165 5 0 6 -26 4 -57 -3 -32 -5 -77
-5 -101 -1 -31 -4 -41 -13 -37 -7 4 -3 -2 10 -13 30 -28 28 -39 -12 -52 -19
-6 -34 -17 -32 -23 1 -7 1 -9 -1 -4 -3 4 -9 5 -14 2 -5 -4 -6 0 -3 8 3 8 -1
14 -10 14 -8 0 -13 -4 -10 -9 7 -11 -2 -10 -24 1 -37 21 -182 71 -282 98 -97
26 -119 28 -287 28 -101 0 -183 2 -184 5 -6 28 -5 70 2 70 5 0 9 13 9 28 0 29
38 163 49 172 3 3 7 14 7 25 2 29 50 154 67 174 18 21 30 54 17 46 -17 -10
-11 4 10 25 13 13 20 33 20 56 0 24 4 33 12 28 7 -4 8 -3 4 5 -4 6 0 23 9 38
9 14 12 22 5 18 -7 -4 -5 4 4 17 9 14 13 28 10 31 -4 4 -2 12 3 19 5 7 20 42
33 78 13 36 29 72 37 81 7 9 10 18 7 22 -3 3 3 32 14 64 63 181 77 293 48 375
-8 23 -10 40 -4 46 8 8 10 50 6 169 -1 18 -6 31 -11 30 -5 -1 -12 4 -15 12 -3
10 0 12 12 8 13 -5 15 -3 7 11 -5 10 -8 69 -6 131 3 95 6 115 22 127 16 12 16
15 3 24 -12 8 -11 10 7 10 12 0 25 5 29 12 5 7 3 8 -7 3 -8 -5 -6 1 5 13 10
12 23 20 29 19 6 -1 11 5 12 13 0 22 42 30 132 24 77 -5 84 -7 117 -40z m1263
-54 c132 -46 258 -193 297 -346 42 -164 -8 -306 -130 -365 -144 -69 -379 52
-472 244 -85 176 -75 331 28 432 67 65 158 77 277 35z m-1930 6 c9 -9 33 -129
32 -161 -3 -110 0 -125 27 -135 24 -10 25 -30 1 -30 -6 0 -23 -12 -39 -27
l-28 -26 4 51 c1 30 -1 49 -7 45 -5 -3 -8 13 -6 38 7 91 -41 196 -85 184 -21
-6 -21 -6 -2 9 11 9 16 16 11 16 -5 0 2 11 14 24 17 18 30 23 49 20 15 -3 28
-6 29 -8z m1540 -138 c-3 -8 -6 -5 -6 6 -1 11 2 17 5 13 3 -3 4 -12 1 -19z
m-1597 -47 c0 -28 -3 -32 -17 -25 -10 4 -34 8 -55 9 -39 0 -39 8 1 40 53 42
71 37 71 -24z m2258 24 c-3 -3 -9 2 -12 12 -6 14 -5 15 5 6 7 -7 10 -15 7 -18z
m-1358 -59 c0 -2 -7 -7 -16 -10 -8 -3 -12 -2 -9 4 6 10 25 14 25 6z m187 -38
c13 -22 12 -38 -2 -38 -8 0 -17 5 -21 12 -4 7 -3 8 4 4 7 -4 12 -1 12 8 0 8
-10 17 -22 19 -23 4 -23 4 -1 6 12 0 25 -5 30 -11z m48 -18 c3 -5 2 -10 -4
-10 -5 0 -13 5 -16 10 -3 6 -2 10 4 10 5 0 13 -4 16 -10z m-1181 -6 c9 -3 16
-13 16 -21 0 -11 -9 -12 -37 -8 -62 11 -70 14 -53 25 17 11 51 13 74 4z m1209
-31 c-13 -2 -33 -2 -45 0 -13 2 -3 4 22 4 25 0 35 -2 23 -4z m202 -13 c-3 -5
-1 -10 6 -10 7 0 10 -2 8 -5 -3 -2 -15 -2 -28 2 -17 4 -19 8 -9 14 18 12 31
11 23 -1z m-1188 -44 c-4 -9 -14 -12 -28 -9 l-21 6 23 13 c27 14 34 11 26 -10z
m1184 14 c10 -6 19 -16 19 -22 0 -7 -7 -5 -17 4 -10 9 -25 18 -33 21 -10 4
-11 6 -2 6 7 1 22 -4 33 -9z m-1226 -40 c-11 -5 -14 -9 -7 -9 20 -1 14 -17
-13 -35 -14 -9 -25 -13 -24 -9 4 22 -2 25 -15 7 -13 -16 -17 -17 -28 -5 -7 8
-8 11 -2 8 7 -4 19 5 28 18 9 14 21 23 26 20 5 -3 11 -1 15 5 3 5 14 10 23 9
14 0 13 -2 -3 -9z m-218 -332 c-34 -58 -52 -68 -76 -43 -11 11 -22 31 -26 45
-6 25 -5 25 40 22 26 -3 52 1 58 7 25 25 27 8 4 -31z m241 -196 c7 -1 12 -10
10 -19 -2 -10 2 -17 9 -16 7 2 9 -6 4 -25 -5 -18 -14 -27 -27 -26 -14 1 -20
-6 -22 -24 -1 -14 -12 -35 -24 -46 -13 -12 -28 -30 -33 -40 -7 -12 -23 -19
-50 -20 l-40 -1 0 40 c0 29 -5 42 -18 47 -23 10 -13 28 16 29 20 1 20 2 -3 9
-17 5 -19 8 -7 9 9 1 16 4 15 9 -3 17 15 42 32 42 10 0 21 6 23 13 4 9 8 9 15
-2 8 -11 12 -10 20 5 10 18 29 22 80 16z m-93 -252 c-2 -8 -4 -19 -4 -24 -1
-5 -7 -3 -14 3 -8 6 -17 8 -20 4 -4 -3 -7 -1 -7 5 0 7 6 12 13 12 8 0 7 4 -3
10 -12 8 -9 9 11 8 18 -2 26 -7 24 -18z m348 -820 c56 -12 136 -32 177 -47
117 -39 337 -153 323 -166 -3 -4 2 -7 13 -7 25 -1 56 -24 46 -36 -4 -5 -3 -6
2 -2 12 10 46 -10 46 -28 0 -8 4 -13 9 -10 11 7 77 -43 73 -55 -1 -6 2 -8 6
-5 12 7 52 -27 52 -43 0 -7 4 -10 10 -6 5 3 18 -3 29 -14 21 -21 26 -80 10
-112 -6 -13 -2 -15 22 -11 24 4 29 1 29 -16 0 -23 -37 -33 -122 -32 -29 0 -78
-1 -110 -2 -31 -2 -54 0 -52 3 2 4 -13 10 -34 14 -20 4 -40 11 -43 16 -3 6
-22 11 -42 12 -20 2 -39 6 -43 10 -11 10 -36 9 -30 -2 7 -11 -37 -23 -58 -15
-23 9 -20 22 7 27 19 4 18 4 -5 6 -16 0 -28 6 -28 12 0 18 -32 38 -62 39 -16
0 -28 4 -28 8 0 13 -33 11 -49 -2 -10 -8 -13 -8 -8 0 8 14 -77 53 -123 56 -40
2 -77 22 -61 33 6 3 11 1 11 -4 0 -6 5 -11 11 -11 8 0 8 5 -1 15 -7 8 -17 12
-24 8 -6 -4 -72 -8 -146 -10 -249 -3 -325 -4 -357 -2 l-31 1 5 57 c13 148 86
264 198 317 43 21 65 24 163 24 75 0 148 -7 215 -20z m-534 -443 c8 -10 7 -14
-4 -14 -8 0 -15 6 -15 14 0 7 2 13 4 13 2 0 9 -6 15 -13z m316 -35 c-3 -3 -11
0 -18 7 -9 10 -8 11 6 5 10 -3 15 -9 12 -12z m115 4 c0 -11 -19 -15 -25 -6 -3
5 1 10 9 10 9 0 16 -2 16 -4z m937 -28 c-3 -7 -5 -2 -5 12 0 14 2 19 5 13 2
-7 2 -19 0 -25z m-580 -44 c-3 -3 -12 -4 -19 -1 -8 3 -5 6 6 6 11 1 17 -2 13
-5z m-611 -71 c-6 -6 -36 9 -36 18 0 5 9 4 20 -3 10 -7 18 -14 16 -15z m944
-9 c0 -10 -20 -3 -41 16 l-24 20 33 -16 c17 -8 32 -17 32 -20z m154 4 c-5 -8
-54 12 -54 23 0 4 13 2 29 -4 17 -6 28 -14 25 -19z m60 -7 c-2 -3 -12 3 -22
13 -16 17 -16 18 5 5 12 -7 20 -15 17 -18z m-1200 -13 c-3 -4 -11 -8 -17 -7
-9 0 -9 2 0 5 7 3 9 13 6 22 -4 14 -3 14 5 2 6 -8 8 -18 6 -22z m47 -29 c6
-23 6 -23 10 6 l4 30 14 -24 c10 -18 10 -21 0 -16 -7 5 -10 4 -5 -3 3 -6 19
-10 34 -8 15 1 53 -11 84 -27 47 -23 65 -28 97 -22 34 6 40 4 46 -14 5 -16 14
-21 33 -19 15 1 34 -2 41 -7 10 -5 12 -4 7 3 -10 16 25 15 47 -2 9 -7 17 -18
17 -24 0 -18 45 -25 136 -20 55 3 89 9 94 18 4 7 13 9 20 5 6 -4 17 1 24 10 9
13 21 16 40 13 18 -4 29 -1 33 8 3 9 14 11 34 7 19 -4 29 -1 29 7 0 8 6 9 18
5 35 -16 90 -15 96 0 7 20 36 19 36 0 0 -16 6 -18 65 -15 22 1 44 7 48 13 6 9
10 9 14 0 2 -7 15 -13 28 -13 18 0 23 -5 20 -18 -2 -10 3 -19 10 -19 7 0 10 8
7 19 -2 10 1 18 7 18 6 0 11 -10 11 -22 0 -19 2 -20 11 -8 16 22 8 2 -26 -65
-51 -103 -210 -240 -334 -289 -132 -51 -183 -59 -341 -53 -80 4 -174 11 -210
17 -65 11 -205 56 -262 86 -49 25 -118 95 -143 144 -30 60 -49 149 -41 191 9
45 47 90 88 105 43 15 51 13 59 -17z"/>
<path d="M3047 3250 c-3 -11 -1 -20 4 -20 5 0 9 9 9 20 0 11 -2 20 -4 20 -2 0
-6 -9 -9 -20z"/>
<path d="M4072 4987 c-123 -45 -183 -194 -133 -329 81 -213 352 -239 442 -43
26 56 25 162 -1 218 -62 132 -190 196 -308 154z m131 -124 c20 -11 2 -23 -35
-23 -24 -1 -61 -7 -83 -15 -44 -16 -54 -12 -39 13 19 30 119 46 157 25z"/>
</g>
</svg>
